<svg xmlns="http://www.w3.org/2000/svg" fill="none" viewBox="0 0 32 32">
  <path fill="#000" fill-rule="evenodd"
    d="M23.37 23.68c.27-1.71.33-3.4.32-5.13-.02-1.05-.32-3.34-.32-3.34s3.01-4.14 1.93-7.72c0 0-.57-3.19-4.73-2.22a59.75 59.75 0 0 0-5.37 1.97c-1.77.52-2.2-.15-2.2-.15-.76-.99 1.95-.6 1.95-.6-1.87-1.94-5.02-1.43-5.02-1.43-4.45.8-3.06 7.38-.89 10.17a25.87 25.87 0 0 0-.31 4.69c.02 1.31.13 2.62.43 3.9l.06.27c.2.9.61 2.82 1.42 2.9.75.08 1.09-1.61 1.2-2.22l.02-.07a26.42 26.42 0 0 1 1.51-5.14c.42-1 1.18-2.8 2.48-2.8 3.04 0 4.91 8.6 4.91 8.6l.07.3c.15.7.38 1.75 1.17 1.17.34-.25.6-.6.78-.97a7.6 7.6 0 0 0 .59-2.18ZM20.62 6.95s2.92 2.88.45 6.8c0 0 5.84-4.63-.45-6.8Z"
    clip-rule="evenodd" />
</svg>