<svg xmlns="http://www.w3.org/2000/svg" fill="currentColor" viewBox="0 0 66 50">
  <path fill="currentColor" fill-rule="evenodd"
    d="M55.82 49.74c-1.8.85-2.2-.48-2.55-1.92-.68-2.6-3-10.72-6.56-14.87l-.09.1-.04.06-.18.23c-3.8 4.83-7.91 10.1-10.71 16.65-5.58-4.6-11.56-7.47-17-10.07l-.3-.14C9.7 35.63 2.4 32.07.32 23.01c-.09-.38-.15-.77-.2-1.16-.91-6.9 4.1-13.63 11.71-15.38 5.83-1.34 11.56.63 14.91 4.58 1.3-5.02 5.59-9.3 11.41-10.63 6.1-1.4 12.12.82 15.38 5.17.37-.12.7-.21 1-.28 9.68-2.34 10.57 5.38 10.57 5.38 1.52 6.51-2.5 13.47-4.33 16.25 0 0 .69 20.16-4.94 22.8Zm3-18.68c.04 3.2-.09 6.3-.59 9.45a14 14 0 0 1-1.07 4.03c-.35.7-.8 1.32-1.44 1.78-1.46 1.08-1.88-.85-2.15-2.15a29.12 29.12 0 0 0-.14-.57S50 27.8 44.38 27.8c-2.39 0-3.78 3.3-4.56 5.14l-.05.12a47.59 47.59 0 0 0-2.73 9.36l-.03.12c-.22 1.12-.85 4.24-2.22 4.1-1.5-.16-2.26-3.71-2.61-5.35l-.12-.5a34.03 34.03 0 0 1-.8-7.2c-.04-2.86.11-5.79.59-8.63-4.01-5.14-6.56-17.25 1.64-18.73 0 0 5.79-.95 9.25 2.62 0 0-5-.71-3.6 1.11 0 0 .8 1.23 4.05.28 0 0 7.35-3.04 9.9-3.63 7.66-1.78 8.7 4.09 8.7 4.09 2 6.6-3.54 14.23-3.54 14.23s.55 4.2.57 6.14ZM54.26 8.44s8.2 5.89.86 15.76c0 0 11.1-10.74-.86-15.76Z"
    clip-rule="evenodd" />
</svg>