<svg xmlns="http://www.w3.org/2000/svg" xml:space="preserve" viewBox="0 0 240 240">

  <!-- heart -->
  <path fill="#ed1c24" d="M177.495 148.135c-4.472 2.098-5.476-1.194-6.348-4.786-1.684-6.47-7.454-26.679-16.312-37.019-.259.328-.522.652-.78.984-9.472 12.015-19.688 25.133-26.664 41.441-14.115-11.674-29.275-18.84-43.022-25.417-21.649-10.337-39.825-19.188-45.006-41.741a29.389 29.389 0 0 1-.512-2.875c-2.268-17.16 10.23-33.937 29.161-38.288 14.495-3.333 28.753 1.564 37.1 11.401 3.212-12.497 13.9-23.125 28.397-26.456 15.196-3.496 30.152 2.038 38.282 12.858a44.11 44.11 0 0 1 2.464-.699c24.097-5.817 26.324 13.397 26.324 13.397 3.78 16.208-6.244 33.518-10.79 40.46 0 0 1.72 50.16-12.294 56.74"/>

  <!-- tooth -->
  <path fill="#fff" d="M184.984 101.633c.078 7.944-.226 15.686-1.468 23.536-.5 3.187-1.129 6.904-2.676 10.012-.86 1.731-2.013 3.282-3.588 4.443-4.238 3.12-4.936-3.933-5.684-6.779 0 0-8.556-39.354-22.532-39.354-6.077 0-9.562 8.574-11.473 13.094-3.157 7.443-5.212 15.387-6.81 23.291-.494 2.46-2.04 10.88-5.583 10.51-4.167-.434-6.07-11.52-6.784-14.555-1.376-5.879-1.878-11.879-1.983-17.903-.121-7.144.265-14.43 1.444-21.49-9.987-12.791-16.33-42.931 4.073-46.631 0 0 14.42-2.358 23.027 6.522 0 0-12.45-1.762-8.967 2.774 0 0 1.996 3.053 10.087.702 0 0 18.295-7.589 24.636-9.057 19.068-4.421 21.679 10.181 21.679 10.181 4.956 16.45-8.838 35.427-8.838 35.427s1.376 10.467 1.44 15.277"/>

  <!-- indent -->
  <path fill="#ed1c24" d="M173.624 45.338s20.432 14.66 2.137 39.235c0 0 27.643-26.73-2.137-39.235"/>

  <!-- wording -->
  <path fill="#fff" d="M34.973 177.91h3.608l-1.844-4.912Zm3.506 4.941v-.352c.499-.092.85-.21 1.055-.349a.658.658 0 0 0 .305-.581c0-.203-.077-.51-.232-.93l-.701-1.86h-4.323l-.597 1.607c-.153.41-.23.741-.23.99 0 .534.406.906 1.217 1.123v.352h-3.914v-.352c.472-.08.884-.326 1.235-.737.35-.41.699-1.081 1.043-2.012l3.481-9.32h1.655l3.681 9.693c.34.864.67 1.464.995 1.806.322.34.746.53 1.266.57v.352zm12.578-11.419h-1.578v9.307c0 .52.152.888.455 1.104.304.215.808.324 1.513.324 1.404 0 2.488-.467 3.259-1.396.767-.928 1.15-2.244 1.15-3.944 0-1.663-.42-2.979-1.263-3.945-.843-.966-2.02-1.45-3.536-1.45m-5.783 11.419v-.35c.639-.177 1.057-.37 1.248-.583.192-.212.29-.671.29-1.38v-7.723c0-.545-.098-.925-.29-1.143-.19-.213-.61-.406-1.248-.573v-.356h6.195c2.253 0 4.029.57 5.334 1.708 1.304 1.139 1.956 2.639 1.956 4.499 0 1.792-.584 3.226-1.749 4.297-1.165 1.07-2.743 1.604-4.73 1.604Zm25.566-12.108v.356c-.494.1-.894.303-1.198.61-.305.305-.605.848-.9 1.622l-3.733 9.835h-.4l-3.818-9.716c-.35-.883-.662-1.473-.941-1.779-.276-.302-.672-.493-1.19-.572v-.356h5.509v.356c-.678.111-1.014.404-1.014.876 0 .212.07.5.212.856l2.41 6.152 2.156-5.814c.128-.355.193-.659.193-.908 0-.643-.433-1.03-1.3-1.162v-.356zm1.737 7.167h3.608l-1.842-4.912Zm3.508 4.941v-.352c.496-.092.847-.21 1.052-.349a.664.664 0 0 0 .308-.581c0-.203-.078-.51-.233-.93l-.701-1.86h-4.323l-.596 1.607c-.156.41-.23.741-.23.99 0 .534.405.906 1.215 1.123v.352h-3.913v-.352c.475-.08.884-.326 1.235-.737.348-.41.697-1.081 1.042-2.012l3.483-9.32h1.653l3.684 9.693c.338.864.666 1.464.991 1.806.324.34.745.53 1.268.57v.352zm15.608-11.752v-.356h4.085v.356c-1.173.067-1.76.727-1.76 1.979v9.916h-.396l-8.713-9.816v7.402c0 .648.12 1.1.357 1.358.233.26.708.446 1.424.562v.35h-4.176v-.35c.565-.09.973-.282 1.219-.582.244-.3.368-.766.368-1.402V172.3c-.472-.484-.798-.795-.975-.93a1.533 1.533 0 0 0-.633-.27v-.356h3.64l7.077 8.117v-5.45c0-.8-.105-1.354-.316-1.66-.213-.308-.61-.524-1.201-.651m16.308 3.867h-.336c-.277-1.218-.776-2.165-1.496-2.838-.721-.675-1.598-1.01-2.63-1.01-1.122 0-2.019.474-2.684 1.423-.662.95-.992 2.228-.992 3.832 0 1.785.385 3.167 1.16 4.143.776.978 1.842 1.466 3.205 1.466a4.55 4.55 0 0 0 2.023-.453c.612-.304 1.234-.793 1.869-1.467v.638c-1.199 1.644-2.835 2.465-4.903 2.465-1.854 0-3.361-.573-4.52-1.724-1.157-1.148-1.737-2.641-1.737-4.472 0-1.861.624-3.417 1.875-4.665 1.252-1.25 2.802-1.875 4.666-1.875.762 0 1.619.17 2.578.505.409.147.69.222.836.222.298 0 .548-.21.75-.624h.336zm9.461-.049h.393v3.75h-.393c-.143-1.03-.7-1.546-1.68-1.546h-2.134v3.559c0 .545.126.929.374 1.15.249.224.677.336 1.282.336h.704c1.184 0 2.032-.75 2.544-2.257h.354l-.222 2.941h-9.217v-.35c.607-.13 1.01-.314 1.213-.552.2-.239.3-.702.3-1.391v-7.783c0-.568-.102-.958-.31-1.178-.208-.218-.608-.387-1.203-.498v-.356h9.076v2.688h-.357c-.2-.788-.452-1.318-.751-1.593-.299-.27-.779-.405-1.44-.405h-2.347v5.001h2.135c.484 0 .856-.116 1.112-.345.256-.231.444-.622.567-1.171m8.298-3.486h-1.578v9.307c0 .52.15.888.456 1.104.304.215.806.324 1.517.324 1.4 0 2.485-.467 3.253-1.396.768-.928 1.152-2.244 1.152-3.944 0-1.663-.422-2.979-1.26-3.945-.844-.966-2.024-1.45-3.54-1.45m-5.784 11.419v-.35c.642-.177 1.056-.37 1.251-.583.19-.212.285-.671.285-1.38v-7.723c0-.545-.094-.925-.285-1.143-.195-.213-.61-.406-1.25-.573v-.356h6.197c2.25 0 4.026.57 5.332 1.708 1.304 1.139 1.954 2.639 1.954 4.499 0 1.792-.584 3.226-1.744 4.297-1.168 1.07-2.745 1.604-4.733 1.604zm27.709-8.015h.353v3.761h-.353c-.093-.541-.287-.93-.577-1.164-.29-.236-.726-.352-1.302-.352h-1.878v3.74c0 .54.105.932.322 1.172.214.246.602.415 1.16.507v.352h-5.68v-.352c.592-.092.998-.272 1.203-.53.21-.26.31-.737.31-1.433v-7.804c0-.489-.095-.844-.293-1.061-.197-.213-.605-.407-1.22-.573v-.355h8.58l.244 2.275h-.353c-.215-.568-.49-.974-.825-1.218-.34-.249-.792-.369-1.363-.369h-2.085v4.963h1.878c.543 0 .955-.114 1.23-.335.269-.223.488-.63.649-1.224m3.711 3.074h3.61l-1.846-4.912Zm3.508 4.941v-.352c.495-.092.847-.21 1.052-.349a.667.667 0 0 0 .308-.581c0-.203-.08-.51-.236-.93l-.7-1.86h-4.32l-.596 1.607c-.156.41-.23.741-.23.99 0 .534.403.906 1.214 1.123v.352h-3.91v-.352c.466-.08.88-.326 1.229-.737.352-.41.7-1.081 1.042-2.012l3.483-9.32h1.656l3.68 9.693c.339.864.668 1.464.993 1.806.323.34.747.53 1.267.57v.352zm22.966-12.108v.356c-.495.084-.847.24-1.072.468-.222.224-.334.547-.334.966-.002.153.01.328.038.524l1.093 7.561c.083.555.27.979.564 1.275.292.296.721.5 1.285.606v.352h-5.982v-.352c.5-.128.857-.326 1.073-.596.215-.27.321-.656.321-1.164 0-.245-.02-.549-.069-.908l-.992-6.916-3.985 9.936h-.432l-3.93-9.936-1.054 7.118c-.038.282-.06.54-.06.768 0 1.058.497 1.624 1.488 1.698v.352h-4.388v-.352c.638-.026 1.122-.24 1.444-.642.321-.399.558-1.078.705-2.028l1.199-7.904c-.515-.53-1.099-.807-1.759-.826v-.356h4.377l3.16 7.984 3.206-7.984Zm8.571 0v.356c-.594.131-.994.312-1.204.538-.212.226-.312.692-.312 1.401v7.763c0 .545.098.925.292 1.142.194.218.602.402 1.224.556v.352h-5.718v-.352c.426-.106.75-.225.964-.353.208-.13.36-.29.448-.487.078-.194.122-.568.122-1.12v-7.745c0-.545-.098-.93-.294-1.147-.202-.218-.61-.4-1.24-.548v-.356Zm7.369 0v.356c-.644.16-1.067.343-1.252.554-.19.208-.28.56-.28 1.05v8.16c0 .503.133.85.396 1.028.267.184.77.275 1.513.275.772 0 1.375-.172 1.803-.51.424-.34.87-.991 1.339-1.946h.356l-.356 3.141h-9.242v-.352c.646-.162 1.056-.353 1.243-.574.183-.224.275-.687.275-1.387v-7.744c0-.545-.1-.93-.295-1.147-.199-.218-.605-.4-1.223-.548v-.356Zm13.335 1.657-2.862 4.072v4.33c0 .538.11.93.323 1.172.217.242.621.42 1.216.526v.352h-5.744v-.352c.563-.08.955-.256 1.187-.522.233-.265.352-.685.352-1.257v-3.539l-3.147-4.82c-.31-.466-.58-.782-.81-.952-.233-.169-.537-.272-.906-.312v-.354h5.519v.354c-.587.027-.878.22-.878.586 0 .226.114.521.339.878l2.097 3.24 1.836-2.662c.294-.418.436-.79.436-1.114 0-.473-.31-.78-.93-.928v-.354h3.752v.354c-.628.058-1.222.494-1.78 1.302M39.098 190.267h-2.192v12.95c0 .722.21 1.231.633 1.53.421.3 1.124.45 2.11.45 1.949 0 3.457-.646 4.527-1.94 1.068-1.293 1.603-3.12 1.603-5.483 0-2.314-.588-4.146-1.76-5.49-1.17-1.345-2.812-2.017-4.921-2.017m-8.04 15.884v-.49c.89-.243 1.469-.514 1.734-.809.268-.296.403-.934.403-1.92v-10.741c0-.759-.135-1.285-.403-1.587-.265-.301-.844-.568-1.734-.801v-.492h8.62c3.129 0 5.6.792 7.413 2.375 1.815 1.584 2.723 3.669 2.723 6.257 0 2.492-.81 4.483-2.434 5.975-1.62 1.489-3.814 2.233-6.578 2.233zm31.887-11.035h.546v5.216h-.546c-.198-1.433-.976-2.15-2.335-2.15h-2.967v4.947c0 .76.174 1.294.518 1.604.346.308.944.464 1.782.464h.983c1.647 0 2.824-1.045 3.537-3.134h.492l-.309 4.088H51.823v-.491c.846-.176 1.408-.432 1.688-.765.28-.331.422-.976.422-1.935v-10.823c0-.79-.147-1.336-.434-1.64-.288-.304-.848-.533-1.676-.693v-.493H64.45v3.738h-.492c-.282-1.097-.63-1.834-1.048-2.214-.418-.38-1.084-.568-2.002-.568h-3.264v6.958h2.967c.677 0 1.192-.158 1.547-.481.358-.32.618-.863.788-1.628m15.76-5.313v-.492h5.68v.492c-1.63.092-2.447 1.011-2.447 2.754v13.792h-.552L69.27 192.697v10.297c0 .896.165 1.527.492 1.887.33.36.99.621 1.982.78v.49h-5.806v-.49c.79-.12 1.353-.391 1.694-.808.34-.418.514-1.067.514-1.948v-11.43c-.656-.676-1.11-1.106-1.356-1.293a2.079 2.079 0 0 0-.879-.379v-.492h5.059l9.845 11.288v-7.578c0-1.114-.147-1.886-.443-2.311-.292-.428-.848-.73-1.666-.907M96.8 205.66v.49h-7.903v-.49c.83-.159 1.388-.403 1.677-.73.29-.329.432-.927.432-1.8v-12.863h-1.683c-1.02 0-1.826.22-2.418.66-.595.438-1.038 1.138-1.324 2.094h-.494l.168-4.062h.523c.363.234.917.352 1.657.352h10.868c.76 0 1.314-.118 1.66-.352h.52l.168 4.062h-.493c-.29-.956-.732-1.656-1.327-2.094-.592-.44-1.397-.66-2.418-.66H94.73v12.892c0 .824.148 1.414.439 1.762.29.354.832.6 1.63.74m7.635-6.384h5.017l-2.565-6.833Zm4.878 6.874v-.491c.69-.132 1.178-.292 1.463-.485a.918.918 0 0 0 .427-.81c0-.281-.108-.71-.324-1.29l-.972-2.587h-6.012l-.832 2.232c-.212.572-.32 1.033-.32 1.379 0 .741.565 1.262 1.692 1.561v.49H98.99v-.49c.657-.11 1.228-.453 1.716-1.024.488-.572.972-1.507 1.45-2.8L107 188.873h2.299l5.123 13.484c.469 1.2.929 2.035 1.38 2.508.452.476 1.038.74 1.764.795v.49zm17.518-16.84v.492c-.9.223-1.48.482-1.746.772-.263.292-.393.778-.393 1.463v11.347c0 .7.186 1.178.557 1.432.368.253 1.07.38 2.103.38 1.076 0 1.913-.238 2.51-.71.594-.474 1.216-1.373 1.86-2.706h.494l-.495 4.37h-12.848v-.49c.893-.224 1.467-.491 1.727-.802.254-.308.382-.95.382-1.926v-10.77c0-.758-.137-1.29-.41-1.596-.278-.304-.842-.558-1.699-.764v-.492Zm28.821 5.875h-.464c-.383-1.695-1.077-3.013-2.08-3.95-1.003-.935-2.221-1.407-3.655-1.407-1.566 0-2.81.661-3.736 1.981-.92 1.325-1.384 3.1-1.384 5.33 0 2.485.54 4.406 1.615 5.765 1.081 1.36 2.567 2.038 4.459 2.038 1.021 0 1.96-.21 2.814-.632.85-.422 1.72-1.1 2.596-2.04v.887c-1.665 2.287-3.937 3.43-6.814 3.43-2.578 0-4.674-.798-6.288-2.394-1.61-1.599-2.415-3.672-2.415-6.224 0-2.587.87-4.75 2.605-6.487 1.736-1.74 3.904-2.609 6.492-2.609 1.056 0 2.251.233 3.582.701.574.208.962.311 1.17.311.412 0 .755-.29 1.04-.872h.463zm6.861 4.091h5.018l-2.566-6.833Zm4.876 6.874v-.491c.692-.132 1.181-.292 1.466-.485a.922.922 0 0 0 .428-.81c0-.281-.11-.71-.328-1.29l-.972-2.587h-6.012l-.83 2.232c-.212.572-.318 1.033-.318 1.379 0 .741.564 1.262 1.69 1.561v.49h-5.442v-.49c.656-.11 1.231-.453 1.716-1.024.486-.572.97-1.507 1.45-2.8l4.844-12.963h2.3l5.121 13.484c.467 1.2.928 2.035 1.377 2.508.454.476 1.042.74 1.763.795v.49zm16.34-15.884h-1.155v6.903c.29.017.564.026.816.026 1.342 0 2.316-.288 2.932-.865.615-.576.92-1.487.92-2.733 0-2.22-1.172-3.331-3.513-3.331m-7 15.884v-.49c1.423-.11 2.133-.829 2.133-2.151v-11.403c0-.777-.144-1.315-.438-1.617-.298-.3-.864-.527-1.695-.687v-.492h8.015c2.097 0 3.71.37 4.84 1.11 1.129.74 1.693 1.782 1.693 3.12 0 .966-.293 1.795-.883 2.489-.585.694-1.426 1.202-2.521 1.517v.059c.387.093.82.418 1.277.977.458.557 1.124 1.655 1.999 3.285.853 1.58 1.476 2.586 1.865 3.006.39.42.918.684 1.596.786v.49h-4.857c-.639-.751-1.452-2.115-2.448-4.09-.688-1.358-1.2-2.262-1.532-2.71-.335-.451-.681-.77-1.039-.95-.36-.182-1.081-.273-2.16-.273v5.172c0 .74.167 1.292.495 1.653.328.362.885.599 1.675.708v.49zm30.172-11.035h.544v5.216h-.544c-.198-1.433-.978-2.15-2.336-2.15h-2.968v4.947c0 .76.173 1.294.518 1.604.347.308.942.464 1.784.464h.98c1.65 0 2.826-1.045 3.538-3.134h.49l-.31 4.088h-12.82v-.491c.846-.176 1.41-.432 1.69-.765.28-.331.418-.976.418-1.935v-10.823c0-.79-.144-1.336-.432-1.64-.288-.304-.848-.533-1.676-.693v-.493h12.626v3.738h-.49c-.282-1.097-.634-1.834-1.05-2.214-.42-.38-1.085-.568-2.004-.568h-3.262v6.958h2.968c.673 0 1.19-.158 1.546-.481.354-.32.616-.863.79-1.628"/>

  <!-- border -->
  <path fill="#fff" d="M208.944 164.33H31.056v-3.16h177.888zm0 51.334H31.056v-3.16h177.888z"/>
  
</svg>