<svg xmlns="http://www.w3.org/2000/svg" fill="none" width="216" height="50" viewBox="0 0 216 50">
  <!-- heart -->
  <path fill="#ED1C24"
    d="M55.82 49.74c-1.8.85-2.2-.48-2.55-1.92-.68-2.6-3-10.72-6.56-14.87l-.31.4c-3.8 4.82-7.91 10.09-10.72 16.64-5.67-4.69-11.76-7.57-17.28-10.21-8.7-4.15-16-7.71-18.1-16.77-.09-.38-.15-.77-.2-1.16-.91-6.9 4.1-13.63 11.71-15.38 5.83-1.34 11.56.63 14.91 4.58 1.3-5.02 5.59-9.3 11.41-10.63 6.1-1.4 12.12.82 15.38 5.16l1-.28c9.68-2.33 10.57 5.39 10.57 5.39 1.52 6.51-2.5 13.47-4.33 16.25 0 0 .69 20.16-4.94 22.8Z" />
  <!-- tooth -->
  <path fill="#fff"
    d="M58.82 31.06c.04 3.2-.09 6.3-.59 9.45a14 14 0 0 1-1.07 4.03c-.35.7-.8 1.32-1.44 1.78-1.7 1.26-1.99-1.57-2.29-2.72 0 0-3.43-15.81-9.05-15.81-2.44 0-3.84 3.44-4.61 5.26a48.3 48.3 0 0 0-2.74 9.36c-.2.99-.82 4.37-2.24 4.22-1.68-.17-2.44-4.63-2.73-5.85a34.02 34.02 0 0 1-.8-7.2c-.04-2.86.11-5.79.59-8.63-4.01-5.14-6.56-17.25 1.63-18.73 0 0 5.8-.95 9.26 2.62 0 0-5-.71-3.6 1.11 0 0 .8 1.23 4.05.28 0 0 7.35-3.05 9.9-3.64 7.66-1.77 8.7 4.1 8.7 4.1 2 6.6-3.54 14.23-3.54 14.23s.55 4.2.57 6.14Z" />
  <!-- indent -->
  <path fill="#ED1C24" d="M54.26 8.44s8.2 5.89.86 15.76c0 0 11.1-10.74-.86-15.76Z" />
  <!-- wording -->
  <path fill="#fff"
    d="M75.01 18.65h2.92l-1.5-3.97-1.42 3.97Zm2.84 4v-.28c.4-.08.68-.17.85-.29a.53.53 0 0 0 .25-.47c0-.16-.06-.4-.19-.75l-.57-1.5h-3.5l-.48 1.3c-.12.33-.18.6-.18.8 0 .43.33.73.98.9v.3h-3.16v-.3c.38-.06.71-.26 1-.59.28-.33.56-.87.84-1.63l2.81-7.54h1.34l2.98 7.85c.27.7.54 1.18.8 1.46.27.27.6.43 1.03.46v.28h-4.8Zm10.17-9.24h-1.28v7.53c0 .42.13.72.37.9.25.17.66.26 1.23.26 1.13 0 2.01-.38 2.63-1.13a4.9 4.9 0 0 0 .93-3.19 4.7 4.7 0 0 0-1.02-3.2 3.6 3.6 0 0 0-2.86-1.17Zm-4.68 9.24v-.28c.52-.14.86-.3 1.01-.47.16-.17.24-.55.24-1.12v-6.25c0-.44-.08-.75-.24-.92-.15-.17-.49-.33-1-.47v-.28h5c1.83 0 3.27.46 4.32 1.38a4.6 4.6 0 0 1 1.58 3.64 4.5 4.5 0 0 1-1.41 3.47 5.44 5.44 0 0 1-3.83 1.3h-5.67Zm20.68-9.8v.3c-.4.08-.72.24-.97.49a3.9 3.9 0 0 0-.72 1.31l-3.02 7.96h-.32l-3.1-7.86a5.22 5.22 0 0 0-.75-1.44 1.6 1.6 0 0 0-.97-.47v-.28h4.46v.28c-.55.1-.82.33-.82.71 0 .18.05.41.17.7l1.95 4.97 1.74-4.7c.1-.29.16-.53.16-.74 0-.51-.35-.83-1.05-.94v-.28h3.24Zm1.4 5.8h2.93l-1.5-3.97-1.42 3.97Zm2.85 4v-.28c.4-.08.68-.17.85-.29a.53.53 0 0 0 .24-.47c0-.16-.06-.4-.18-.75l-.57-1.5h-3.5l-.48 1.3c-.12.33-.19.6-.19.8 0 .43.33.73.99.9v.3h-3.17v-.3c.38-.06.72-.26 1-.59.28-.33.56-.87.84-1.63l2.82-7.54h1.34l2.98 7.85c.27.7.54 1.18.8 1.46.26.27.6.43 1.03.46v.28h-4.8Zm12.62-9.5v-.3h3.3v.3c-.95.05-1.42.58-1.42 1.6v8.02h-.32l-7.05-7.94v5.98c0 .53.1.9.3 1.1.18.21.56.36 1.14.46v.28h-3.37v-.28c.45-.07.78-.23.98-.47.2-.25.3-.62.3-1.14v-6.64a8.8 8.8 0 0 0-.79-.76 1.23 1.23 0 0 0-.51-.22v-.28h2.94l5.73 6.56v-4.4c0-.65-.09-1.1-.26-1.35s-.5-.42-.97-.53Zm13.19 3.13h-.27a4.36 4.36 0 0 0-1.21-2.3 3 3 0 0 0-2.13-.82c-.9 0-1.63.38-2.17 1.15a5.3 5.3 0 0 0-.8 3.1c0 1.45.31 2.56.94 3.35a3.1 3.1 0 0 0 2.59 1.2c.6 0 1.14-.13 1.63-.38.5-.24 1-.64 1.52-1.18v.51c-.97 1.33-2.3 2-3.97 2-1.5 0-2.72-.47-3.65-1.4a4.87 4.87 0 0 1-1.4-3.62 5.12 5.12 0 0 1 5.29-5.29c.6 0 1.3.14 2.08.41.33.12.56.18.68.18.24 0 .44-.17.6-.5h.27v3.59Zm7.65-.05h.32v3.04h-.32c-.11-.84-.56-1.25-1.35-1.25h-1.73v2.88c0 .44.1.75.3.93.2.18.55.27 1.04.27h.57c.96 0 1.64-.61 2.06-1.83h.28l-.18 2.38h-7.45v-.28c.49-.1.82-.25.98-.45.16-.2.24-.57.24-1.12v-6.3c0-.46-.08-.77-.25-.95-.17-.18-.5-.31-.97-.4v-.3h7.34v2.18h-.29a2.76 2.76 0 0 0-.6-1.29c-.25-.22-.64-.33-1.17-.33h-1.9v4.05h1.73c.39 0 .69-.1.9-.28.2-.19.36-.5.45-.95Zm6.72-2.82h-1.28v7.53c0 .42.12.72.37.9.25.17.65.26 1.22.26 1.14 0 2.02-.38 2.64-1.13a4.9 4.9 0 0 0 .93-3.19 4.7 4.7 0 0 0-1.02-3.2 3.6 3.6 0 0 0-2.86-1.17Zm-4.68 9.24v-.28c.52-.14.85-.3 1-.47.16-.17.24-.55.24-1.12v-6.25c0-.44-.07-.75-.23-.92a2.3 2.3 0 0 0-1.01-.47v-.28h5.01c1.82 0 3.26.46 4.31 1.38a4.6 4.6 0 0 1 1.59 3.64c0 1.45-.47 2.6-1.42 3.47a5.43 5.43 0 0 1-3.82 1.3h-5.67Zm22.41-6.48h.29v3.04h-.29c-.08-.44-.23-.75-.47-.94-.23-.19-.58-.29-1.05-.29h-1.52v3.03c0 .44.09.75.26.95.18.2.49.33.94.4v.3h-4.6v-.3c.49-.07.81-.21.98-.42.17-.21.25-.6.25-1.16v-6.31c0-.4-.08-.69-.24-.86a2.18 2.18 0 0 0-.98-.47v-.28h6.94l.2 1.84h-.3a2.1 2.1 0 0 0-.66-.99c-.27-.2-.64-.3-1.1-.3h-1.69v4.02h1.52c.44 0 .77-.1 1-.27.21-.18.4-.51.52-.99Zm3 2.48h2.92l-1.5-3.97-1.42 3.97Zm2.84 4v-.28c.4-.08.68-.17.85-.29a.54.54 0 0 0 .25-.47c0-.16-.06-.4-.2-.75l-.56-1.5h-3.5l-.48 1.3c-.12.33-.18.6-.18.8 0 .43.33.73.98.9v.3h-3.16v-.3c.38-.06.71-.26 1-.59.28-.33.56-.87.84-1.63l2.81-7.54h1.34l2.98 7.85c.27.7.54 1.18.8 1.46.27.27.6.43 1.03.46v.28h-4.8Zm18.58-9.8v.3c-.4.06-.69.2-.87.37a1.1 1.1 0 0 0-.27.79c0 .12 0 .26.03.42l.88 6.12c.07.44.22.79.46 1.03.24.24.58.4 1.04.49v.28h-4.84v-.28c.4-.1.7-.27.87-.49.17-.21.26-.53.26-.94 0-.2-.02-.44-.06-.73l-.8-5.6-3.22 8.04h-.35l-3.18-8.03-.85 5.75c-.03.2-.05.42-.05.62 0 .86.4 1.32 1.2 1.38v.28h-3.55v-.28c.52-.02.9-.2 1.17-.52.26-.33.45-.87.57-1.64l.97-6.4a2.02 2.02 0 0 0-1.42-.67v-.28h3.54l2.56 6.46 2.59-6.46h3.32Zm6.93 0v.3c-.48.1-.8.25-.97.43-.17.18-.26.56-.26 1.13V21c0 .45.08.75.24.93.16.17.49.32 1 .45v.28h-4.64v-.28a3 3 0 0 0 .78-.29.86.86 0 0 0 .36-.4c.07-.15.1-.45.1-.9v-6.26c0-.44-.07-.75-.23-.93-.16-.18-.5-.33-1-.45v-.28h4.62Zm5.96 0v.3c-.52.12-.86.27-1.01.44-.16.17-.23.46-.23.85v6.6c0 .41.1.69.32.84.22.14.62.22 1.22.22a2.3 2.3 0 0 0 1.46-.42c.35-.27.71-.8 1.09-1.57h.28l-.28 2.54h-7.48v-.28c.52-.13.86-.29 1-.47.16-.18.23-.55.23-1.12v-6.26c0-.44-.08-.75-.24-.93-.16-.18-.49-.33-.99-.45v-.28h4.63Zm10.79 1.35-2.32 3.3V21c0 .43.09.75.26.94.18.2.5.34.99.43v.28h-4.65v-.28c.45-.07.78-.2.96-.42.2-.22.28-.56.28-1.02v-2.86l-2.54-3.9a3.12 3.12 0 0 0-.66-.77 1.51 1.51 0 0 0-.73-.26v-.28h4.47v.28c-.48.03-.72.18-.72.48 0 .18.1.42.28.7l1.7 2.63 1.48-2.15c.24-.34.35-.64.35-.9 0-.39-.25-.64-.75-.76v-.28h3.04v.28c-.51.05-.99.4-1.44 1.06ZM78.35 28.65h-1.77v10.47c0 .59.17 1 .5 1.24.35.25.92.37 1.71.37 1.58 0 2.8-.53 3.67-1.57.86-1.05 1.3-2.53 1.3-4.44 0-1.87-.48-3.35-1.43-4.44a5 5 0 0 0-3.98-1.63Zm-6.5 12.85v-.4c.72-.2 1.19-.41 1.4-.65.22-.24.32-.76.32-1.55v-8.7c0-.6-.1-1.03-.32-1.28-.22-.24-.68-.46-1.4-.65v-.4h6.97c2.53 0 4.53.65 6 1.93a6.4 6.4 0 0 1 2.2 5.06c0 2.02-.66 3.63-1.97 4.83-1.31 1.2-3.09 1.81-5.32 1.81h-7.88Zm25.79-8.93h.44v4.22h-.44c-.16-1.16-.8-1.74-1.9-1.74h-2.39v4c0 .62.14 1.05.42 1.3.28.25.76.38 1.44.38h.8c1.33 0 2.28-.85 2.86-2.54h.4L99 41.5H88.64v-.4c.69-.14 1.14-.35 1.37-.62.23-.27.34-.79.34-1.56v-8.76c0-.64-.12-1.08-.35-1.32-.24-.25-.69-.44-1.36-.57v-.4h10.21v3.03h-.4c-.22-.89-.5-1.48-.84-1.79-.34-.3-.88-.46-1.62-.46h-2.64v5.63h2.4c.55 0 .96-.13 1.25-.39.29-.26.5-.7.64-1.32Zm12.75-4.3v-.4h4.59v.4c-1.32.08-1.98.82-1.98 2.23v11.16h-.44l-9.8-11.05v8.33c0 .73.13 1.24.4 1.53.26.3.8.5 1.6.63v.4h-4.7v-.4c.64-.1 1.1-.31 1.37-.65.28-.34.41-.86.41-1.58v-9.24c-.53-.55-.9-.9-1.1-1.05-.2-.15-.44-.26-.7-.3v-.4h4.09l7.96 9.13v-6.13c0-.9-.12-1.53-.35-1.87-.24-.35-.7-.6-1.35-.73m14.63 12.82v.4h-6.39v-.4c.67-.13 1.12-.32 1.36-.59.23-.26.34-.75.34-1.45v-10.4h-1.36c-.82 0-1.47.17-1.95.52-.48.36-.84.93-1.07 1.7h-.4l.14-3.29h.42c.3.2.74.29 1.34.29h8.79c.61 0 1.06-.1 1.34-.29h.42l.14 3.29h-.4a3.19 3.19 0 0 0-1.07-1.7 3.22 3.22 0 0 0-1.96-.53h-1.36v10.43c0 .67.12 1.14.35 1.43.24.28.68.48 1.32.6Zm6.18-5.16h4.06l-2.08-5.53-1.98 5.53Zm3.94 5.56v-.4c.56-.1.96-.23 1.19-.39a.75.75 0 0 0 .34-.65c0-.23-.08-.58-.26-1.05l-.79-2.09h-4.86l-.67 1.8c-.18.47-.26.84-.26 1.12 0 .6.45 1.02 1.37 1.26v.4h-4.4v-.4c.53-.09.99-.36 1.38-.83.4-.46.79-1.21 1.17-2.26l3.92-10.49h1.86l4.15 10.91c.38.97.75 1.65 1.11 2.03.37.38.84.6 1.43.64v.4h-6.68Zm14.17-13.62v.4c-.73.18-1.2.38-1.4.62-.22.23-.33.63-.33 1.18v9.18c0 .57.15.95.45 1.16.3.2.87.3 1.7.3.88 0 1.55-.19 2.03-.57.48-.38.99-1.1 1.51-2.19h.4l-.4 3.54h-10.4v-.4c.73-.18 1.2-.4 1.4-.65.2-.25.31-.76.31-1.55v-8.71c0-.62-.11-1.05-.33-1.3-.22-.24-.68-.45-1.38-.62v-.4h6.44Zm23.32 4.75h-.38a6.07 6.07 0 0 0-1.68-3.2 4.17 4.17 0 0 0-2.96-1.13 3.5 3.5 0 0 0-3.02 1.6 7.4 7.4 0 0 0-1.12 4.31c0 2.01.44 3.56 1.3 4.66a4.35 4.35 0 0 0 3.61 1.65c.83 0 1.59-.17 2.28-.5.69-.35 1.39-.9 2.1-1.66v.72a6.47 6.47 0 0 1-5.51 2.77 6.9 6.9 0 0 1-5.09-1.94 6.78 6.78 0 0 1-1.95-5.03c0-2.1.7-3.84 2.1-5.25a7.12 7.12 0 0 1 5.25-2.1c.86 0 1.83.18 2.9.56.47.17.78.25.95.25.33 0 .61-.23.84-.7h.38v4.99Zm5.55 3.31h4.05l-2.07-5.53-1.98 5.53Zm3.94 5.56v-.4c.56-.1.95-.23 1.19-.39a.75.75 0 0 0 .34-.65c0-.23-.09-.58-.26-1.05l-.79-2.09h-4.86l-.68 1.8c-.17.47-.25.84-.25 1.12 0 .6.45 1.02 1.37 1.26v.4h-4.4v-.4c.53-.09.99-.36 1.38-.83.4-.46.79-1.21 1.17-2.26l3.92-10.49h1.86l4.14 10.91a6.5 6.5 0 0 0 1.12 2.03c.37.38.84.6 1.43.64v.4h-6.68Zm13.22-12.85h-.94v5.58l.66.03c1.09 0 1.88-.24 2.37-.7.5-.47.75-1.2.75-2.21 0-1.8-.95-2.7-2.84-2.7m-5.67 12.85v-.4c1.15-.09 1.73-.67 1.73-1.74v-9.22c0-.63-.12-1.07-.36-1.3-.24-.25-.7-.44-1.37-.57v-.4h6.48c1.7 0 3 .3 3.92.9.92.6 1.37 1.44 1.37 2.53 0 .78-.24 1.45-.71 2.01a4.1 4.1 0 0 1-2.04 1.23v.05c.31.07.66.34 1.03.79s.91 1.33 1.62 2.65c.69 1.28 1.2 2.1 1.5 2.44.32.34.75.55 1.3.63v.4h-3.93c-.52-.6-1.18-1.71-1.98-3.31-.56-1.1-.97-1.83-1.24-2.2a2.5 2.5 0 0 0-.84-.76 4.5 4.5 0 0 0-1.75-.22v4.18c0 .6.13 1.05.4 1.34.26.29.72.48 1.35.57v.4h-6.48Zm24.4-8.93h.45v4.22h-.44c-.16-1.16-.8-1.74-1.9-1.74h-2.4v4c0 .62.15 1.05.43 1.3s.76.38 1.44.38h.8c1.33 0 2.28-.85 2.86-2.54h.4l-.26 3.31h-10.37v-.4c.69-.14 1.14-.35 1.37-.62.22-.27.34-.79.34-1.56v-8.76c0-.64-.12-1.08-.35-1.32-.24-.25-.69-.44-1.36-.57v-.4h10.21v3.03h-.4c-.22-.89-.5-1.48-.84-1.79-.34-.3-.88-.46-1.62-.46h-2.64v5.63h2.4c.54 0 .96-.13 1.25-.39.29-.26.5-.7.64-1.32Z" />
  <!-- border -->
  <!-- <path fill="#fff" d="M216.64 5.11H72.75v2.56h143.89V5.11Zm0 41.53H72.75v2.55h143.89v-2.55Z"
  /> -->
</svg>