<svg xmlns="http://www.w3.org/2000/svg" fill="none" width="66" height="50" viewBox="0 0 66 50">
  <path fill="#ED1C24"
    d="M55.82 49.74c-1.8.85-2.2-.48-2.55-1.92-.68-2.6-3-10.72-6.56-14.87l-.31.4c-3.8 4.82-7.91 10.09-10.72 16.64-5.67-4.69-11.76-7.57-17.28-10.21-8.7-4.15-16-7.71-18.1-16.77-.09-.38-.15-.77-.2-1.16-.91-6.9 4.1-13.63 11.71-15.38 5.83-1.34 11.56.63 14.91 4.58 1.3-5.02 5.59-9.3 11.41-10.63 6.1-1.4 12.12.82 15.38 5.16l1-.28c9.68-2.33 10.57 5.39 10.57 5.39 1.52 6.51-2.5 13.47-4.33 16.25 0 0 .69 20.16-4.94 22.8Z" />
  <path fill="#fff"
    d="M58.82 31.06c.04 3.2-.09 6.3-.59 9.45a14 14 0 0 1-1.07 4.03c-.35.7-.8 1.32-1.44 1.78-1.7 1.26-1.99-1.57-2.29-2.72 0 0-3.43-15.81-9.05-15.81-2.44 0-3.84 3.44-4.61 5.26a48.3 48.3 0 0 0-2.74 9.36c-.2.99-.82 4.37-2.24 4.22-1.68-.17-2.44-4.63-2.73-5.85a34.02 34.02 0 0 1-.8-7.2c-.04-2.86.11-5.79.59-8.63-4.01-5.14-6.56-17.25 1.63-18.73 0 0 5.8-.95 9.26 2.62 0 0-5-.71-3.6 1.11 0 0 .8 1.23 4.05.28 0 0 7.35-3.05 9.9-3.64 7.66-1.77 8.7 4.1 8.7 4.1 2 6.6-3.54 14.23-3.54 14.23s.55 4.2.57 6.14Z" />
  <path fill="#ED1C24" d="M54.26 8.44s8.2 5.89.86 15.76c0 0 11.1-10.74-.86-15.76Z" />
</svg>