<svg xmlns="http://www.w3.org/2000/svg" width="100" height="100" viewBox="0 0 500 500">
  <path fill="#ED1C24"
    d="M389.865 399.224c-10.845 5.088-13.28-2.895-15.394-11.606-4.084-15.69-18.077-64.699-39.558-89.774-.628.796-1.266 1.581-1.892 2.386-22.97 29.138-47.745 60.95-64.662 100.498-34.23-28.31-70.994-45.689-104.331-61.638-52.501-25.068-96.579-46.533-109.143-101.225a71.238 71.238 0 0 1-1.242-6.972c-5.5-41.615 24.809-82.3 70.718-92.852 35.151-8.082 69.728 3.793 89.97 27.649 7.789-30.306 33.708-56.08 68.865-64.158 36.851-8.478 73.121 4.942 92.836 31.182a106.679 106.679 0 0 1 5.976-1.696c58.437-14.106 63.838 32.489 63.838 32.489 9.166 39.306-15.143 81.284-26.167 98.119 0 0 4.171 121.641-29.814 137.598Z" />
  <path fill="#fff"
    d="M408.026 286.454c.19 19.264-.548 38.039-3.56 57.076-1.212 7.729-2.738 16.743-6.489 24.28-2.086 4.198-4.882 7.959-8.701 10.774-10.278 7.567-11.97-9.537-13.784-16.439 0 0-20.749-95.436-54.642-95.436-14.737 0-23.189 20.792-27.823 31.753-7.656 18.05-12.64 37.315-16.515 56.483-1.198 5.966-4.947 26.385-13.539 25.487-10.105-1.052-14.72-27.936-16.452-35.297-3.337-14.257-4.554-28.807-4.809-43.416-.293-17.324.643-34.993 3.502-52.115-24.219-31.019-39.601-104.11 9.877-113.083 0 0 34.97-5.718 55.843 15.816 0 0-30.193-4.273-21.746 6.727 0 0 4.84 7.404 24.462 1.703 0 0 44.366-18.404 59.744-21.964 46.241-10.721 52.573 24.69 52.573 24.69 12.019 39.892-21.433 85.913-21.433 85.913s3.337 25.383 3.492 37.048Z" />
  <path fill="#ED1C24"
    d="M380.478 149.934s49.549 35.552 5.182 95.148c0 0 67.036-64.822-5.182-95.148Z" />
</svg>