<svg xmlns="http://www.w3.org/2000/svg" xmlns:xlink="http://www.w3.org/1999/xlink" version="1.1"
  width="234" height="108" viewBox="0 0 234 108">
  <defs>
    <clipPath id="clip_0">
      <path transform="matrix(1,0,0,-1,0,108)" d="M0 108H234V0H0Z" />
    </clipPath>
  </defs>
  <g id="layer_1" data-name="Layer 1">
    <g clip-path="url(#clip_0)">
      <path transform="matrix(1,0,0,-1,83.915,47.6514)"
        d="M0 0H2.918L1.427 3.974ZM2.837-3.999V-3.712C3.239-3.636 3.523-3.542 3.688-3.43 3.854-3.318 3.937-3.162 3.937-2.96 3.937-2.796 3.874-2.546 3.749-2.208L3.182-.703H-.314L-.798-2.003C-.921-2.335-.983-2.603-.983-2.804-.983-3.235-.655-3.538 0-3.712V-3.999H-3.165V-3.712C-2.783-3.647-2.45-3.448-2.167-3.115-1.883-2.783-1.603-2.241-1.324-1.488L1.493 6.051H2.831L5.81-1.791C6.083-2.488 6.35-2.975 6.612-3.25 6.875-3.526 7.216-3.68 7.637-3.712V-3.999Z"
        fill="#ed1c24" />
      <path transform="matrix(1,0,0,-1,96.9243,42.410203)"
        d="M0 0H-1.276V-7.531C-1.276-7.951-1.153-8.248-.908-8.422-.663-8.597-.253-8.684 .319-8.684 1.453-8.684 2.33-8.308 2.952-7.555 3.573-6.803 3.884-5.74 3.884-4.366 3.884-3.02 3.543-1.956 2.862-1.173 2.18-.391 1.227 0 0 0M-4.677-9.24V-8.954C-4.16-8.812-3.823-8.655-3.667-8.483-3.512-8.312-3.435-7.939-3.435-7.367V-1.12C-3.435-.679-3.512-.371-3.667-.196-3.823-.022-4.16 .133-4.677 .27V.556H.335C2.156 .556 3.594 .095 4.648-.826 5.703-1.747 6.23-2.96 6.23-4.464 6.23-5.915 5.759-7.073 4.816-7.939 3.873-8.806 2.597-9.24 .989-9.24Z"
        fill="#ed1c24" />
      <path transform="matrix(1,0,0,-1,112.9263,41.853998)"
        d="M0 0V-.286C-.399-.368-.722-.533-.968-.781-1.214-1.029-1.457-1.467-1.697-2.093L-4.715-10.049H-5.037L-8.127-2.191C-8.411-1.478-8.665-.998-8.888-.752-9.112-.507-9.433-.352-9.853-.286V0H-5.396V-.286C-5.942-.379-6.215-.616-6.215-.996-6.215-1.17-6.158-1.402-6.043-1.69L-4.093-6.666-2.35-1.963C-2.247-1.674-2.195-1.429-2.195-1.227-2.195-.709-2.545-.396-3.246-.286V0Z"
        fill="#ed1c24" />
      <path transform="matrix(1,0,0,-1,114.3325,47.6514)"
        d="M0 0H2.918L1.427 3.974ZM2.837-3.999V-3.712C3.239-3.636 3.523-3.542 3.689-3.43 3.854-3.318 3.937-3.162 3.937-2.96 3.937-2.796 3.875-2.546 3.749-2.208L3.182-.703H-.314L-.798-2.003C-.921-2.335-.983-2.603-.983-2.804-.983-3.235-.655-3.538 0-3.712V-3.999H-3.165V-3.712C-2.783-3.647-2.45-3.448-2.167-3.115-1.883-2.783-1.603-2.241-1.324-1.488L1.493 6.051H2.831L5.81-1.791C6.083-2.488 6.35-2.975 6.613-3.25 6.875-3.526 7.216-3.68 7.637-3.712V-3.999Z"
        fill="#ed1c24" />
      <path transform="matrix(1,0,0,-1,129.7949,42.1401)"
        d="M0 0V.286H3.303V0C2.354-.055 1.881-.589 1.881-1.603V-9.624H1.56L-5.487-1.684V-7.671C-5.487-8.194-5.392-8.561-5.2-8.771-5.01-8.98-4.626-9.131-4.048-9.224V-9.51H-7.425V-9.224C-6.967-9.153-6.639-8.996-6.439-8.753-6.24-8.511-6.141-8.133-6.141-7.621V-.973C-6.522-.581-6.786-.33-6.93-.221-7.074-.112-7.245-.039-7.441 0V.286H-4.498L1.227-6.28V-1.873C1.227-1.224 1.141-.776 .971-.528 .8-.28 .477-.104 0 0"
        fill="#ed1c24" />
      <path transform="matrix(1,0,0,-1,142.9844,45.272)"
        d="M0 0H-.27C-.493 .986-.896 1.752-1.48 2.297-2.063 2.843-2.772 3.115-3.606 3.115-4.517 3.115-5.24 2.731-5.777 1.962-6.314 1.194-6.582 .161-6.582-1.137-6.582-2.581-6.269-3.699-5.642-4.489-5.016-5.28-4.151-5.675-3.05-5.675-2.456-5.675-1.911-5.552-1.415-5.307-.919-5.062-.414-4.667 .098-4.121V-4.636C-.872-5.966-2.194-6.631-3.868-6.631-5.367-6.631-6.585-6.167-7.522-5.237-8.46-4.308-8.929-3.102-8.929-1.619-8.929-.115-8.424 1.143-7.412 2.154-6.401 3.166-5.144 3.671-3.639 3.671-3.022 3.671-2.328 3.535-1.554 3.263-1.222 3.143-.995 3.083-.875 3.083-.635 3.083-.434 3.251-.27 3.589H0Z"
        fill="#ed1c24" />
      <path transform="matrix(1,0,0,-1,150.6377,45.231)"
        d="M0 0H.319V-3.034H0C-.114-2.2-.567-1.783-1.357-1.783H-3.083V-4.661C-3.083-5.103-2.982-5.413-2.78-5.593-2.579-5.773-2.234-5.863-1.744-5.863H-1.173C-.216-5.863 .47-5.255 .883-4.04H1.169L.989-6.419H-6.468V-6.133C-5.976-6.029-5.647-5.881-5.485-5.687-5.322-5.494-5.241-5.119-5.241-4.563V1.733C-5.241 2.191-5.325 2.509-5.493 2.686-5.661 2.863-5.986 2.998-6.468 3.091V3.377H.875V1.202H.589C.425 1.839 .222 2.269-.021 2.49-.263 2.71-.651 2.821-1.186 2.821H-3.083V-1.227H-1.357C-.965-1.227-.665-1.133-.458-.947-.251-.76-.098-.445 0 0"
        fill="#ed1c24" />
      <path transform="matrix(1,0,0,-1,157.3506,42.410203)"
        d="M0 0H-1.275V-7.531C-1.275-7.951-1.153-8.248-.908-8.422-.662-8.597-.254-8.684 .318-8.684 1.452-8.684 2.33-8.308 2.952-7.555 3.573-6.803 3.884-5.74 3.884-4.366 3.884-3.02 3.543-1.956 2.861-1.173 2.181-.391 1.227 0 0 0M-4.678-9.24V-8.954C-4.159-8.812-3.823-8.655-3.667-8.483-3.512-8.312-3.435-7.939-3.435-7.367V-1.12C-3.435-.679-3.512-.371-3.667-.196-3.823-.022-4.159 .133-4.678 .27V.556H.335C2.155 .556 3.594 .095 4.648-.826 5.703-1.747 6.23-2.96 6.23-4.464 6.23-5.915 5.759-7.073 4.816-7.939 3.873-8.806 2.598-9.24 .989-9.24Z"
        fill="#ed1c24" />
      <path transform="matrix(1,0,0,-1,175.0859,45.1655)"
        d="M0 0H.286V-3.042H0C-.077-2.603-.232-2.289-.467-2.1-.701-1.91-1.053-1.815-1.521-1.815H-3.042V-4.841C-3.042-5.277-2.955-5.593-2.78-5.79-2.606-5.985-2.293-6.122-1.84-6.198V-6.484H-6.436V-6.198C-5.954-6.122-5.629-5.979-5.461-5.769-5.293-5.559-5.209-5.173-5.209-4.612V1.701C-5.209 2.099-5.289 2.385-5.449 2.559-5.608 2.733-5.938 2.889-6.436 3.025V3.312H.507L.703 1.472H.417C.242 1.93 .02 2.258-.252 2.457-.524 2.656-.892 2.755-1.354 2.755H-3.042V-1.259H-1.521C-1.08-1.259-.749-1.169-.528-.99-.307-.81-.131-.48 0 0"
        fill="#ed1c24" />
      <path transform="matrix(1,0,0,-1,178.0859,47.6514)"
        d="M0 0H2.918L1.427 3.974ZM2.837-3.999V-3.712C3.239-3.636 3.522-3.542 3.688-3.43 3.854-3.318 3.938-3.162 3.938-2.96 3.938-2.796 3.874-2.546 3.748-2.208L3.182-.703H-.314L-.798-2.003C-.922-2.335-.983-2.603-.983-2.804-.983-3.235-.655-3.538 0-3.712V-3.999H-3.164V-3.712C-2.783-3.647-2.45-3.448-2.167-3.115-1.884-2.783-1.603-2.241-1.324-1.488L1.493 6.051H2.831L5.81-1.791C6.083-2.488 6.35-2.975 6.612-3.25 6.875-3.526 7.216-3.68 7.637-3.712V-3.999Z"
        fill="#ed1c24" />
      <path transform="matrix(1,0,0,-1,199.501,41.853998)"
        d="M0 0V-.286C-.397-.357-.687-.484-.866-.667-1.046-.85-1.137-1.11-1.137-1.448-1.139-1.573-1.129-1.715-1.107-1.873L-.222-7.989C-.156-8.436-.005-8.779 .232-9.019 .47-9.259 .817-9.422 1.275-9.51V-9.796H-3.564V-9.51C-3.161-9.406-2.873-9.246-2.698-9.027-2.523-8.809-2.437-8.496-2.437-8.087-2.437-7.885-2.455-7.64-2.493-7.351L-3.295-1.758-6.519-9.796H-6.868L-10.049-1.758-10.899-7.515C-10.932-7.744-10.948-7.951-10.948-8.136-10.948-8.992-10.548-9.45-9.746-9.51V-9.796H-13.295V-9.51C-12.777-9.488-12.388-9.315-12.126-8.991-11.864-8.666-11.674-8.12-11.555-7.351L-10.587-.956C-11.002-.526-11.477-.303-12.012-.286V0H-8.467L-5.911-6.459-3.32 0Z"
        fill="#ed1c24" />
      <path transform="matrix(1,0,0,-1,206.4355,41.853998)"
        d="M0 0V-.286C-.482-.396-.807-.541-.975-.724-1.143-.906-1.227-1.284-1.227-1.856V-8.136C-1.227-8.578-1.148-8.886-.991-9.06-.834-9.234-.504-9.384 0-9.51V-9.796H-4.628V-9.51C-4.279-9.422-4.02-9.327-3.848-9.224-3.676-9.12-3.556-8.989-3.487-8.831-3.42-8.673-3.386-8.371-3.386-7.923V-1.66C-3.386-1.218-3.466-.909-3.627-.732-3.787-.555-4.121-.406-4.628-.286V0Z"
        fill="#ed1c24" />
      <path transform="matrix(1,0,0,-1,212.3965,41.853998)"
        d="M0 0V-.286C-.523-.417-.861-.567-1.015-.736-1.167-.905-1.243-1.188-1.243-1.586V-8.185C-1.243-8.594-1.136-8.872-.92-9.019-.705-9.167-.298-9.24 .302-9.24 .929-9.24 1.415-9.102 1.762-8.827 2.107-8.552 2.469-8.027 2.845-7.253H3.131L2.845-9.796H-4.629V-9.51C-4.108-9.379-3.774-9.224-3.625-9.043-3.477-8.864-3.402-8.49-3.402-7.923V-1.66C-3.402-1.218-3.481-.909-3.642-.732-3.802-.555-4.13-.406-4.629-.286V0Z"
        fill="#ed1c24" />
      <path transform="matrix(1,0,0,-1,223.1816,43.1948)"
        d="M0 0-2.314-3.294V-6.795C-2.314-7.231-2.228-7.547-2.053-7.744-1.879-7.94-1.552-8.082-1.071-8.169V-8.455H-5.716V-8.169C-5.264-8.104-4.943-7.963-4.755-7.748-4.567-7.533-4.474-7.193-4.474-6.73V-3.868L-7.017 .032C-7.268 .408-7.486 .665-7.675 .801-7.862 .937-8.106 1.022-8.406 1.055V1.341H-3.941V1.055C-4.416 1.033-4.653 .875-4.653 .58-4.653 .395-4.561 .158-4.375-.131L-2.684-2.75-1.194-.598C-.96-.26-.843 .04-.843 .302-.843 .684-1.094 .935-1.595 1.055V1.341H1.438V1.055C.932 1.005 .452 .654 0 0"
        fill="#ed1c24" />
      <path transform="matrix(1,0,0,-1,87.2534,57.6465)"
        d="M0 0H-1.774V-10.473C-1.774-11.057-1.604-11.471-1.262-11.713-.921-11.955-.353-12.076 .444-12.076 2.021-12.076 3.241-11.554 4.105-10.508 4.97-9.461 5.402-7.982 5.402-6.072 5.402-4.199 4.928-2.719 3.98-1.631 3.033-.543 1.706 0 0 0M-6.505-12.85V-12.452C-5.785-12.255-5.316-12.037-5.1-11.799-4.884-11.56-4.776-11.042-4.776-10.246V-1.558C-4.776-.943-4.884-.516-5.1-.272-5.316-.029-5.785 .186-6.505 .376V.773H.466C2.999 .773 4.999 .133 6.465-1.148 7.933-2.43 8.666-4.116 8.666-6.209 8.666-8.226 8.01-9.836 6.698-11.042 5.387-12.248 3.613-12.85 1.376-12.85Z"
        fill="#ed1c24" />
      <path transform="matrix(1,0,0,-1,106.541,61.5693)"
        d="M0 0H.444V-4.22H0C-.159-3.06-.789-2.479-1.888-2.479H-4.287V-6.482C-4.287-7.097-4.147-7.528-3.867-7.778-3.587-8.028-3.107-8.153-2.426-8.153H-1.632C-.3-8.153 .653-7.309 1.229-5.618H1.626L1.376-8.927H-8.996V-8.529C-8.31-8.386-7.854-8.179-7.628-7.909-7.402-7.641-7.29-7.119-7.29-6.346V2.411C-7.29 3.048-7.406 3.489-7.64 3.735-7.873 3.981-8.325 4.17-8.996 4.299V4.696H1.217V1.672H.819C.591 2.559 .309 3.155-.028 3.463-.366 3.771-.906 3.923-1.649 3.923H-4.287V-1.706H-1.888C-1.342-1.706-.925-1.576-.637-1.317-.349-1.058-.136-.618 0 0"
        fill="#ed1c24" />
      <path transform="matrix(1,0,0,-1,119.2891,57.2705)"
        d="M0 0V.397H4.595V0C3.275-.076 2.616-.819 2.616-2.229V-13.386H2.17L-7.63-2.341V-10.669C-7.63-11.396-7.498-11.905-7.232-12.198-6.967-12.489-6.433-12.699-5.629-12.828V-13.226H-10.326V-12.828C-9.689-12.729-9.232-12.512-8.956-12.175-8.679-11.837-8.541-11.312-8.541-10.599V-1.354C-9.071-.808-9.437-.459-9.638-.308-9.839-.155-10.076-.054-10.349 0V.397H-6.255L1.706-8.733V-2.604C1.706-1.702 1.588-1.079 1.351-.733 1.113-.389 .663-.144 0 0"
        fill="#ed1c24" />
      <path transform="matrix(1,0,0,-1,133.9248,70.0986)"
        d="M0 0V-.397H-6.391V0C-5.721 .129-5.269 .326-5.035 .591-4.802 .856-4.686 1.342-4.686 2.047V12.452H-6.046C-6.87 12.452-7.522 12.274-8.003 11.919-8.483 11.562-8.841 10.997-9.075 10.224H-9.473L-9.336 13.511H-8.916C-8.62 13.321-8.173 13.226-7.573 13.226H1.217C1.831 13.226 2.278 13.321 2.559 13.511H2.979L3.116 10.224H2.719C2.483 10.997 2.126 11.562 1.646 11.919 1.166 12.274 .514 12.452-.311 12.452H-1.672V2.024C-1.672 1.356-1.554 .882-1.319 .597-1.084 .313-.645 .114 0 0"
        fill="#ed1c24" />
      <path transform="matrix(1,0,0,-1,140.1006,64.9355)"
        d="M0 0H4.059L1.984 5.527ZM3.945-5.561V-5.163C4.505-5.057 4.899-4.926 5.13-4.771 5.36-4.615 5.476-4.397 5.476-4.117 5.476-3.889 5.388-3.541 5.213-3.07L4.426-.979H-.438L-1.11-2.785C-1.282-3.248-1.368-3.619-1.368-3.9-1.368-4.5-.912-4.92 0-5.163V-5.561H-4.401V-5.163C-3.871-5.072-3.408-4.795-3.014-4.333-2.62-3.871-2.229-3.116-1.842-2.07L2.076 8.416H3.937L8.08-2.49C8.459-3.461 8.831-4.137 9.196-4.521 9.561-4.903 10.036-5.117 10.621-5.163V-5.561Z"
        fill="#ed1c24" />
      <path transform="matrix(1,0,0,-1,158.2158,56.873)"
        d="M0 0V-.397C-.728-.58-1.198-.788-1.41-1.023-1.622-1.258-1.729-1.652-1.729-2.205V-11.383C-1.729-11.951-1.579-12.338-1.279-12.543-.979-12.748-.413-12.85 .421-12.85 1.293-12.85 1.969-12.658 2.451-12.275 2.932-11.893 3.435-11.164 3.958-10.087H4.355L3.958-13.623H-6.437V-13.226C-5.714-13.043-5.249-12.828-5.042-12.577-4.834-12.327-4.73-11.809-4.73-11.02V-2.309C-4.73-1.693-4.842-1.264-5.064-1.018-5.286-.771-5.744-.564-6.437-.397V0Z"
        fill="#ed1c24" />
      <path transform="matrix(1,0,0,-1,181.5293,61.626)"
        d="M0 0H-.376C-.687 1.372-1.248 2.437-2.059 3.195-2.87 3.954-3.855 4.333-5.016 4.333-6.282 4.333-7.288 3.798-8.035 2.729-8.781 1.66-9.155 .224-9.155-1.581-9.155-3.591-8.719-5.145-7.848-6.243-6.976-7.343-5.773-7.893-4.242-7.893-3.416-7.893-2.658-7.722-1.968-7.381-1.278-7.04-.576-6.49 .136-5.731V-6.448C-1.214-8.298-3.052-9.224-5.38-9.224-7.465-9.224-9.159-8.577-10.463-7.284-11.767-5.991-12.419-4.314-12.419-2.252-12.419-.159-11.716 1.59-10.31 2.997-8.903 4.403-7.153 5.106-5.061 5.106-4.204 5.106-3.237 4.917-2.161 4.537-1.698 4.37-1.384 4.287-1.217 4.287-.884 4.287-.604 4.522-.376 4.992H0Z"
        fill="#ed1c24" />
      <path transform="matrix(1,0,0,-1,187.0791,64.9355)"
        d="M0 0H4.059L1.984 5.527ZM3.945-5.561V-5.163C4.505-5.057 4.899-4.926 5.13-4.771 5.36-4.615 5.476-4.397 5.476-4.117 5.476-3.889 5.388-3.541 5.213-3.07L4.426-.979H-.438L-1.11-2.785C-1.282-3.248-1.368-3.619-1.368-3.9-1.368-4.5-.912-4.92 0-5.163V-5.561H-4.401V-5.163C-3.871-5.072-3.408-4.795-3.014-4.333-2.62-3.871-2.229-3.116-1.842-2.07L2.076 8.416H3.937L8.08-2.49C8.459-3.461 8.831-4.137 9.196-4.521 9.561-4.903 10.036-5.117 10.621-5.163V-5.561Z"
        fill="#ed1c24" />
      <path transform="matrix(1,0,0,-1,204.2393,57.6465)"
        d="M0 0H-.933V-5.583C-.698-5.599-.478-5.605-.273-5.605 .811-5.605 1.602-5.373 2.098-4.906 2.595-4.44 2.843-3.703 2.843-2.695 2.843-.898 1.896 0 0 0M-5.664-12.85V-12.452C-4.512-12.361-3.935-11.781-3.935-10.712V-1.489C-3.935-.859-4.055-.424-4.293-.182-4.532 .061-4.989 .247-5.664 .376V.773H.818C2.517 .773 3.822 .475 4.736-.125 5.649-.724 6.106-1.564 6.106-2.648 6.106-3.43 5.869-4.102 5.394-4.662 4.919-5.223 4.238-5.633 3.351-5.891V-5.936C3.669-6.012 4.015-6.275 4.386-6.727 4.757-7.179 5.296-8.064 6.003-9.383 6.693-10.663 7.196-11.475 7.511-11.815 7.826-12.156 8.256-12.369 8.802-12.452V-12.85H4.873C4.358-12.241 3.697-11.138 2.892-9.539 2.336-8.441 1.924-7.71 1.654-7.346 1.386-6.982 1.104-6.727 .813-6.578 .521-6.431-.061-6.356-.933-6.356V-10.541C-.933-11.141-.8-11.586-.535-11.878-.27-12.17 .182-12.361 .818-12.452V-12.85Z"
        fill="#ed1c24" />
      <path transform="matrix(1,0,0,-1,222.9814,61.5693)"
        d="M0 0H.443V-4.22H0C-.159-3.06-.789-2.479-1.889-2.479H-4.288V-6.482C-4.288-7.097-4.147-7.528-3.868-7.778-3.588-8.028-3.107-8.153-2.427-8.153H-1.632C-.301-8.153 .652-7.309 1.228-5.618H1.626L1.376-8.927H-8.996V-8.529C-8.311-8.386-7.855-8.179-7.629-7.909-7.403-7.641-7.29-7.119-7.29-6.346V2.411C-7.29 3.048-7.407 3.489-7.641 3.735-7.874 3.981-8.325 4.17-8.996 4.299V4.696H1.217V1.672H.818C.591 2.559 .309 3.155-.029 3.463-.366 3.771-.906 3.923-1.649 3.923H-4.288V-1.706H-1.889C-1.343-1.706-.926-1.576-.638-1.317-.35-1.058-.137-.618 0 0"
        fill="#ed1c24" />
      <path transform="matrix(1,0,0,-1,0,108)" d="M224.64 71.331H80.75V73.89H224.64Z" fill="#ed1c24" />
      <path transform="matrix(1,0,0,-1,0,108)" d="M224.64 29.808H80.75V32.365H224.64Z"
        fill="#ed1c24" />
      <path transform="matrix(1,0,0,-1,64.7188,78.740207)"
        d="M0 0C-1.796-.843-2.201 .48-2.549 1.923H-2.551C-3.227 4.524-5.545 12.643-9.104 16.798-9.208 16.666-9.314 16.535-9.418 16.402-13.224 11.575-17.33 6.304-20.131-.249-25.804 4.441-31.896 7.321-37.419 9.964-46.119 14.117-53.421 17.675-55.503 26.735-55.592 27.119-55.659 27.506-55.709 27.891-56.62 34.786-51.598 41.528-43.993 43.275-38.168 44.615-32.438 42.647-29.085 38.694-27.793 43.716-23.5 47.986-17.674 49.325-11.568 50.729-5.559 48.506-2.291 44.159-1.922 44.273-1.586 44.369-1.302 44.439 8.38 46.777 9.276 39.056 9.276 39.056 10.795 32.544 6.766 25.588 4.94 22.8 4.94 22.8 5.631 2.644 0 0"
        fill="#ed1c24" />
      <path transform="matrix(1,0,0,-1,67.728,60.0557)"
        d="M0 0C.032-3.192-.09-6.302-.59-9.455-.792-10.737-1.043-12.23-1.664-13.479-2.011-14.176-2.474-14.798-3.106-15.264-4.809-16.518-5.091-13.686-5.391-12.542-5.391-12.542-8.828 3.272-14.445 3.272-16.886 3.272-18.287-.173-19.055-1.989-20.323-4.98-21.148-8.171-21.79-11.348-21.99-12.336-22.61-15.72-24.035-15.571-25.71-15.396-26.473-10.942-26.76-9.722-27.313-7.36-27.515-4.95-27.557-2.529-27.606 .342-27.451 3.269-26.977 6.106-30.989 11.246-33.538 23.357-25.34 24.843-25.34 24.843-19.546 25.79-16.087 22.222-16.087 22.222-21.089 22.93-19.69 21.108-19.69 21.108-18.889 19.881-15.636 20.826-15.636 20.826-8.286 23.875-5.738 24.465 1.924 26.241 2.972 20.374 2.972 20.374 4.963 13.765-.579 6.139-.579 6.139-.579 6.139-.025 1.933 0 0"
        fill="#ffffff" />
      <path transform="matrix(1,0,0,-1,63.1641,37.435098)"
        d="M0 0C0 0 8.208-5.891 .858-15.765 .858-15.765 11.964-5.025 0 0" fill="#ed1c24" />
    </g>
  </g>
</svg>