<svg xmlns="http://www.w3.org/2000/svg" viewBox="0 0 180 180">
  <path fill="#ed1c24"
    d="M26.23 133.433h2.706l-1.383-3.684Zm2.63 3.706v-.264c.374-.07.637-.158.79-.262a.494.494 0 0 0 .23-.436c0-.152-.058-.382-.174-.697l-.526-1.395h-3.242l-.448 1.205c-.115.307-.172.556-.172.742 0 .4.303.68.912.843v.264h-2.935v-.264c.354-.06.663-.245.925-.553.264-.308.525-.811.783-1.51l2.61-6.99h1.242l2.76 7.27c.256.649.503 1.099.747 1.355.242.255.56.398.95.428v.264Zm9.432-8.565H37.11v6.98c0 .39.114.666.341.828.228.161.606.243 1.135.243 1.053 0 1.866-.35 2.444-1.047.575-.696.863-1.683.863-2.958 0-1.247-.315-2.234-.948-2.959-.632-.724-1.515-1.087-2.652-1.087m-4.337 8.564v-.263c.48-.132.794-.277.936-.437.145-.159.218-.503.218-1.035v-5.792c0-.409-.074-.694-.218-.857-.142-.16-.456-.305-.935-.43v-.267H38.6c1.69 0 3.023.427 4.002 1.281.977.854 1.466 1.98 1.466 3.374 0 1.344-.438 2.42-1.312 3.223-.873.802-2.056 1.203-3.547 1.203Zm19.174-9.08v.267c-.37.074-.67.227-.899.457-.229.229-.454.636-.675 1.217l-2.8 7.376h-.299l-2.864-7.287c-.263-.662-.497-1.105-.706-1.334-.207-.227-.504-.37-.893-.43v-.266h4.132v.267c-.508.083-.76.303-.76.657 0 .159.052.374.16.642l1.806 4.614 1.617-4.361c.096-.266.145-.494.145-.681 0-.482-.325-.773-.975-.871v-.267Zm1.303 5.375h2.706l-1.382-3.684Zm2.631 3.706v-.264c.372-.07.635-.158.79-.262a.498.498 0 0 0 .23-.436c0-.152-.059-.382-.175-.697l-.526-1.395h-3.242l-.447 1.205c-.117.307-.173.556-.173.742 0 .4.304.68.912.843v.264h-2.935v-.264c.356-.06.663-.245.926-.553.261-.308.523-.811.782-1.51l2.612-6.99h1.24l2.763 7.27c.253.649.5 1.099.743 1.355.243.255.56.398.951.428v.264Zm11.706-8.815v-.267h3.063v.267c-.88.05-1.32.545-1.32 1.484v7.437h-.297l-6.535-7.362v5.552c0 .486.09.825.268 1.018.175.195.531.335 1.069.422v.263h-3.133v-.263c.424-.068.73-.212.914-.437.183-.224.276-.574.276-1.05v-6.164c-.354-.363-.598-.596-.73-.698a1.15 1.15 0 0 0-.476-.202v-.267h2.73l5.308 6.088v-4.087c0-.6-.079-1.016-.237-1.245-.16-.232-.458-.394-.9-.489m12.231 2.902h-.252c-.208-.914-.582-1.624-1.122-2.13-.541-.505-1.199-.757-1.973-.757-.841 0-1.514.356-2.013 1.068-.496.713-.744 1.67-.744 2.874 0 1.339.289 2.375.87 3.107.582.734 1.382 1.1 2.404 1.1.551 0 1.056-.115 1.517-.34.459-.228.926-.595 1.402-1.1v.478c-.899 1.233-2.126 1.849-3.677 1.849-1.391 0-2.521-.43-3.39-1.293-.868-.861-1.303-1.981-1.303-3.354 0-1.396.468-2.563 1.406-3.5.939-.936 2.102-1.405 3.5-1.405.571 0 1.214.127 1.933.379.307.11.518.166.627.166.224 0 .411-.157.563-.468h.252Zm7.095-.037h.295v2.813h-.295c-.107-.774-.525-1.16-1.259-1.16h-1.6v2.668c0 .41.093.698.28.864.186.168.507.252.961.252h.528c.888 0 1.524-.564 1.908-1.694h.265l-.166 2.207H82.1v-.263c.455-.097.758-.236.91-.415.15-.179.225-.526.225-1.043v-5.837c0-.425-.077-.718-.232-.883-.157-.163-.457-.29-.903-.374v-.267h6.807v2.017h-.268c-.15-.591-.339-.99-.563-1.196-.224-.202-.584-.303-1.08-.303h-1.76v3.75h1.601c.363 0 .642-.086.834-.258.192-.173.333-.466.425-.879m6.224-2.614h-1.184v6.98c0 .39.113.666.342.828.228.161.605.243 1.138.243 1.05 0 1.864-.35 2.44-1.047.576-.696.864-1.683.864-2.958 0-1.247-.317-2.234-.946-2.959-.632-.724-1.517-1.087-2.654-1.087m-4.338 8.564v-.263c.481-.132.792-.277.938-.437.143-.159.214-.503.214-1.035v-5.792c0-.409-.07-.694-.214-.857-.146-.16-.457-.305-.938-.43v-.267h4.648c1.687 0 3.02.427 4 1.281.977.854 1.465 1.98 1.465 3.374 0 1.344-.438 2.42-1.308 3.223-.876.802-2.059 1.203-3.55 1.203Zm20.782-6.011h.265v2.821h-.265c-.07-.406-.215-.698-.433-.873-.217-.177-.544-.264-.976-.264h-1.41v2.805c0 .405.08.699.243.879.16.184.45.311.87.38v.264h-4.26v-.264c.444-.069.748-.204.902-.397.157-.196.233-.553.233-1.075v-5.853c0-.367-.072-.633-.22-.796-.148-.16-.454-.305-.915-.43v-.266h6.435l.183 1.706h-.265c-.161-.426-.368-.73-.62-.913-.253-.187-.593-.277-1.021-.277h-1.564v3.722h1.409c.407 0 .716-.085.923-.251.2-.167.365-.472.486-.918m2.783 2.306h2.707l-1.384-3.684Zm2.63 3.706v-.264c.372-.07.636-.158.79-.262a.5.5 0 0 0 .23-.436c0-.152-.06-.382-.176-.697l-.525-1.395h-3.24l-.447 1.205c-.117.307-.172.556-.172.742 0 .4.302.68.91.843v.264h-2.933v-.264c.35-.06.66-.245.922-.553.264-.308.526-.811.782-1.51l2.612-6.99h1.242l2.76 7.27c.254.649.5 1.099.745 1.355.242.255.56.398.95.428v.264Zm17.225-9.081v.267c-.37.063-.635.18-.804.35-.166.169-.25.41-.25.725-.002.115.007.246.028.393l.82 5.67c.062.417.202.735.423.957.22.222.541.375.964.455v.264h-4.487v-.264c.375-.096.643-.245.805-.447.161-.203.241-.492.241-.873 0-.184-.016-.412-.052-.681l-.744-5.187-2.989 7.452h-.324l-2.948-7.452-.79 5.338a4.491 4.491 0 0 0-.045.576c0 .794.373 1.218 1.116 1.274v.264h-3.29v-.264c.478-.02.841-.181 1.082-.482.241-.3.42-.808.53-1.521l.898-5.928c-.386-.398-.824-.605-1.319-.62v-.266h3.283l2.37 5.988 2.404-5.988Zm6.429 0v.267c-.446.098-.746.234-.903.403-.159.17-.234.519-.234 1.05v5.823c0 .409.073.694.22.857.144.163.45.3.917.417v.264h-4.289v-.264c.32-.08.562-.17.723-.265a.837.837 0 0 0 .336-.365c.06-.146.092-.426.092-.841v-5.808c0-.41-.074-.697-.22-.86-.152-.164-.459-.301-.93-.411v-.267Zm5.526 0v.267c-.483.12-.8.257-.939.415-.142.156-.21.42-.21.788v6.119c0 .378.1.638.297.772.2.138.578.206 1.135.206.58 0 1.031-.13 1.352-.382.318-.255.653-.744 1.004-1.46h.267l-.267 2.356h-6.93v-.264c.483-.122.791-.265.931-.431.137-.168.206-.515.206-1.04v-5.808c0-.41-.075-.697-.22-.86-.15-.164-.455-.301-.918-.411v-.267Zm10.001 1.242-2.146 3.054v3.247c0 .404.082.698.242.88.163.18.466.314.912.394v.264h-4.308v-.264c.422-.06.716-.192.89-.391.175-.2.264-.514.264-.943v-2.654l-2.36-3.616c-.232-.35-.435-.586-.608-.713-.174-.127-.402-.204-.679-.234v-.266h4.14v.266c-.44.02-.659.164-.659.439 0 .17.085.39.254.659l1.573 2.429 1.377-1.996c.22-.313.327-.593.327-.835 0-.355-.232-.585-.698-.696v-.266h2.814v.266c-.47.043-.916.37-1.335.976M29.323 142.7H27.68v9.712c0 .542.158.924.475 1.148.316.225.843.337 1.582.337 1.462 0 2.593-.484 3.396-1.455.801-.969 1.202-2.34 1.202-4.112 0-1.735-.44-3.109-1.32-4.117-.878-1.009-2.109-1.513-3.69-1.513m-6.03 11.913v-.368c.667-.182 1.101-.385 1.3-.606.201-.222.302-.7.302-1.44v-8.056c0-.569-.1-.964-.302-1.19-.199-.226-.633-.426-1.3-.6v-.37h6.464c2.347 0 4.201.594 5.56 1.781 1.361 1.188 2.042 2.752 2.042 4.693 0 1.87-.607 3.362-1.825 4.481-1.215 1.117-2.86 1.675-4.934 1.675Zm23.914-8.276h.41v3.912h-.41c-.149-1.075-.733-1.613-1.752-1.613h-2.224v3.71c0 .57.13.97.388 1.204.26.23.707.348 1.337.348h.736c1.235 0 2.118-.784 2.654-2.351h.369l-.232 3.066h-9.617v-.368c.633-.132 1.056-.324 1.265-.574.21-.248.316-.732.316-1.451v-8.117c0-.592-.11-1.002-.325-1.23-.215-.228-.636-.4-1.257-.52v-.37h9.47v2.804h-.37c-.21-.823-.471-1.376-.785-1.661-.314-.284-.814-.426-1.502-.426h-2.447v5.219h2.225c.508 0 .894-.12 1.16-.361.268-.24.463-.647.59-1.221m11.822-3.984v-.37h4.26v.37c-1.224.069-1.836.758-1.836 2.065v10.344h-.414l-9.088-10.24v7.724c0 .672.124 1.145.37 1.415s.742.466 1.486.585v.368h-4.355v-.368c.592-.09 1.015-.293 1.271-.606.255-.313.385-.8.385-1.461v-8.572c-.492-.507-.832-.83-1.017-.97a1.559 1.559 0 0 0-.659-.284v-.37h3.794l7.384 8.467v-5.684c0-.835-.11-1.414-.332-1.733-.219-.321-.636-.548-1.25-.68M72.6 154.245v.368h-5.927v-.368c.623-.119 1.04-.302 1.258-.547.217-.247.324-.696.324-1.35V142.7h-1.262c-.765 0-1.37.165-1.814.495-.446.33-.778.854-.993 1.571h-.37l.126-3.047h.392c.272.176.688.264 1.243.264h8.15c.57 0 .986-.088 1.245-.264h.39l.127 3.047h-.37c-.218-.717-.55-1.242-.995-1.57-.444-.33-1.048-.496-1.814-.496h-1.262v9.67c0 .617.11 1.06.329 1.321.218.265.624.45 1.223.554m5.725-4.787h3.763l-1.924-5.125Zm3.66 5.155v-.368c.517-.099.882-.219 1.096-.364a.688.688 0 0 0 .32-.607c0-.211-.08-.533-.243-.968l-.729-1.94H77.92l-.624 1.674c-.159.429-.239.775-.239 1.034 0 .556.423.947 1.268 1.171v.368h-4.082v-.368c.493-.082.921-.34 1.287-.768.366-.429.73-1.13 1.087-2.1l3.633-9.722h1.724l3.842 10.113c.352.9.697 1.526 1.036 1.881.338.357.778.555 1.322.596v.368Zm13.137-12.63v.37c-.675.166-1.11.36-1.309.578-.197.22-.295.583-.295 1.097v8.51c0 .525.14.884.418 1.074.276.19.803.285 1.577.285.807 0 1.435-.178 1.882-.532.446-.356.913-1.03 1.395-2.03h.371l-.37 3.278h-9.637v-.368c.67-.168 1.1-.368 1.295-.6.191-.232.287-.714.287-1.446v-8.077c0-.569-.103-.968-.308-1.197-.208-.228-.63-.419-1.274-.573v-.369Zm21.616 4.407h-.348c-.287-1.271-.808-2.26-1.56-2.962-.752-.702-1.666-1.056-2.74-1.056-1.176 0-2.109.496-2.803 1.486-.69.994-1.038 2.325-1.038 3.998 0 1.863.404 3.304 1.211 4.323.811 1.02 1.925 1.529 3.344 1.529a4.71 4.71 0 0 0 2.111-.474c.637-.317 1.29-.826 1.947-1.53v.665c-1.249 1.715-2.953 2.573-5.11 2.573-1.934 0-3.506-.6-4.717-1.796-1.207-1.2-1.81-2.754-1.81-4.668 0-1.94.652-3.562 1.953-4.865 1.302-1.305 2.928-1.957 4.87-1.957.791 0 1.687.175 2.685.526.431.156.722.233.878.233.31 0 .566-.218.78-.654h.347Zm5.146 3.068h3.764l-1.925-5.125Zm3.657 5.155v-.368c.519-.099.886-.219 1.1-.364a.691.691 0 0 0 .32-.607c0-.211-.082-.533-.245-.968l-.73-1.94h-4.508l-.623 1.674c-.16.429-.238.775-.238 1.034 0 .556.423.947 1.267 1.171v.368h-4.081v-.368c.492-.082.923-.34 1.287-.768.364-.429.727-1.13 1.087-2.1l3.633-9.722h1.725l3.84 10.113c.35.9.697 1.526 1.034 1.881.34.357.78.555 1.322.596v.368Zm12.255-11.913h-.866v5.177c.218.013.423.02.612.02 1.006 0 1.737-.216 2.199-.649.46-.432.69-1.115.69-2.05 0-1.665-.88-2.498-2.635-2.498m-5.25 11.913v-.368c1.067-.082 1.6-.62 1.6-1.613v-8.552c0-.583-.108-.986-.33-1.213-.222-.224-.647-.395-1.27-.515v-.369h6.01c1.574 0 2.784.278 3.632.832.846.555 1.269 1.337 1.269 2.341 0 .724-.22 1.346-.662 1.866-.44.521-1.07.902-1.891 1.138v.044c.29.07.615.314.958.733.343.418.843 1.241 1.499 2.464.64 1.185 1.107 1.94 1.399 2.254.293.316.688.513 1.197.59v.368h-3.643c-.48-.564-1.09-1.587-1.836-3.068-.516-1.019-.9-1.697-1.15-2.033-.25-.338-.51-.577-.778-.712-.27-.137-.811-.205-1.62-.205v3.88c0 .554.125.968.37 1.24.247.27.665.448 1.257.53v.368Zm22.629-8.276h.408v3.912h-.408c-.148-1.075-.733-1.613-1.752-1.613h-2.226v3.71c0 .57.13.97.389 1.204.26.23.706.348 1.338.348h.734c1.238 0 2.12-.784 2.654-2.351h.367l-.232 3.066h-9.615v-.368c.635-.132 1.058-.324 1.267-.574.21-.248.314-.732.314-1.451v-8.117c0-.592-.108-1.002-.324-1.23-.216-.228-.636-.4-1.257-.52v-.37h9.47v2.804h-.368c-.211-.823-.475-1.376-.788-1.661-.315-.284-.813-.426-1.502-.426h-2.447v5.219h2.226c.505 0 .892-.12 1.16-.361.265-.24.462-.647.592-1.221m1.533-23.089H23.292v-2.371h133.416Zm0 38.5H23.292v-2.37h133.416Zm-23.587-50.646c-3.354 1.573-4.107-.896-4.76-3.59-1.264-4.853-5.59-20.01-12.235-27.764-.194.246-.39.489-.585.738-7.104 9.01-14.766 18.85-19.998 31.08-10.586-8.755-21.956-14.13-32.266-19.062C47.04 84.75 33.408 78.113 29.522 61.198a22.042 22.042 0 0 1-.384-2.156c-1.7-12.87 7.673-25.453 21.871-28.716 10.871-2.5 21.565 1.173 27.825 8.55 2.41-9.372 10.425-17.343 21.298-19.841 11.397-2.622 22.614 1.528 28.711 9.643.69-.215 1.32-.393 1.848-.524 18.073-4.363 19.743 10.048 19.743 10.048 2.835 12.156-4.683 25.138-8.093 30.344 0 0 1.29 37.62-9.22 42.556" />
  <path fill="#fff"
    d="M138.738 76.225c.058 5.958-.17 11.764-1.1 17.652-.377 2.39-.848 5.178-2.008 7.51-.646 1.297-1.51 2.46-2.69 3.331-3.18 2.34-3.703-2.95-4.264-5.084 0 0-6.417-29.516-16.899-29.516-4.558 0-7.172 6.431-8.605 9.821-2.368 5.582-3.909 11.54-5.108 17.468-.37 1.845-1.53 8.16-4.187 7.883-3.125-.326-4.553-8.64-5.088-10.917-1.032-4.409-1.408-8.909-1.487-13.427-.09-5.358.2-10.822 1.083-16.118-7.49-9.593-12.248-32.198 3.055-34.973 0 0 10.814-1.768 17.27 4.892 0 0-9.337-1.322-6.725 2.08 0 0 1.497 2.29 7.565.527 0 0 13.721-5.692 18.477-6.793 14.301-3.316 16.26 7.636 16.26 7.636 3.716 12.337-6.629 26.57-6.629 26.57s1.032 7.85 1.08 11.458" />
  <path fill="#ed1c24" d="M130.218 34.003s15.324 10.995 1.603 29.426c0 0 20.732-20.047-1.603-29.426" />
</svg>