<?xml version="1.0" standalone="no"?>
<!DOCTYPE svg PUBLIC "-//W3C//DTD SVG 20010904//EN"
 "http://www.w3.org/TR/2001/REC-SVG-20010904/DTD/svg10.dtd">
<svg version="1.0" xmlns="http://www.w3.org/2000/svg"
 width="700.000000pt" height="700.000000pt" viewBox="0 0 700.000000 700.000000"
 preserveAspectRatio="xMidYMid meet">
<metadata>
Created by potrace 1.14, written by Peter Selinger 2001-2017
</metadata>
<g transform="translate(0.000000,700.000000) scale(0.100000,-0.100000)"
fill="#000000" stroke="none">
<path d="M4248 5615 c-2 -1 -44 -5 -94 -8 -50 -4 -97 -8 -105 -11 -8 -3 -30
-7 -49 -10 -90 -13 -243 -67 -356 -125 -130 -68 -216 -131 -329 -245 -140
-141 -227 -278 -289 -456 l-27 -75 -77 75 c-146 143 -368 263 -562 306 -19 4
-37 8 -40 9 -3 1 -27 5 -55 9 -27 4 -61 10 -75 12 -37 7 -241 6 -281 0 -19 -3
-50 -8 -69 -11 -480 -69 -899 -408 -1042 -845 -38 -113 -52 -203 -52 -330 0
-128 5 -172 34 -283 103 -394 325 -683 742 -965 26 -18 50 -32 53 -32 4 0 20
-10 37 -21 76 -55 362 -202 778 -401 597 -286 914 -471 1246 -723 l120 -92 65
135 c35 75 99 197 142 272 93 163 80 141 202 324 125 187 110 165 234 331 94
125 137 182 216 280 13 17 35 45 48 63 l25 33 25 -31 c44 -52 132 -191 184
-291 112 -215 228 -522 323 -856 55 -191 69 -225 105 -249 65 -42 195 21 271
131 96 139 183 410 219 685 3 25 8 56 10 70 7 37 20 164 30 285 14 176 16 237
19 491 l4 271 67 114 c269 454 375 887 302 1239 -22 103 -28 122 -70 207 -75
152 -207 251 -383 288 -72 15 -220 21 -269 11 -12 -2 -47 -7 -79 -11 -32 -4
-85 -16 -118 -26 l-59 -18 -27 32 c-206 243 -499 397 -817 431 -73 8 -173 14
-177 11z"/>
</g>
</svg>
